<svg id="svg" version="1.1" xmlns="http://www.w3.org/2000/svg" viewBox="0 0 400 400" style="display: block;"><path d="M0 0 C132 0 264 0 400 0 C400 132 400 264 400 400 C268 400 136 400 0 400 C0 268 0 136 0 0 Z " transform="translate(0,0)" style="fill: #FEFDFD;"/><path d="M0 0 C132 0 264 0 400 0 C400 132 400 264 400 400 C268 400 136 400 0 400 C0 268 0 136 0 0 Z M21 38 C21 144.92 21 251.84 21 362 C139.14 362 257.28 362 379 362 C379 255.08 379 148.16 379 38 C260.86 38 142.72 38 21 38 Z " transform="translate(0,0)" style="fill: #FF202F;"/><path d="M0 0 C45.87 0 91.74 0 139 0 C139 45.21 139 90.42 139 137 C93.13 137 47.26 137 0 137 C0 91.79 0 46.58 0 0 Z " transform="translate(52,195)" style="fill: #FF1F2E;"/><path d="M0 0 C132 0 264 0 400 0 C400 132 400 264 400 400 C268 400 136 400 0 400 C0 268 0 136 0 0 Z M1 19 C1 138.46 1 257.92 1 381 C132.34 381 263.68 381 399 381 C399 261.54 399 142.08 399 19 C267.66 19 136.32 19 1 19 Z " transform="translate(0,0)" style="fill: #EDD9DB;"/><path d="M0 0 C63.36 0 126.72 0 192 0 C188.21690065 7.56619871 184.46431161 14.84842885 180.125 22.0625 C178.97653438 23.98956658 177.82809822 25.91665071 176.6796875 27.84375 C175.78008301 29.34808594 175.78008301 29.34808594 174.86230469 30.8828125 C171.64492835 36.26816397 168.44814095 41.66571085 165.25 47.0625 C164.5912085 48.17326904 163.93241699 49.28403809 163.25366211 50.4284668 C157.30068771 60.47317188 151.39205764 70.5436537 145.49511719 80.62133789 C145.14949234 81.21186447 144.80386749 81.80239105 144.44776917 82.41081238 C143.51393378 84.00659907 142.58055816 85.60265478 141.6472168 87.19873047 C140.11278607 89.80819515 138.56195417 92.40693638 137 95 C133.03288698 93.67762899 131.53644168 91.1029413 129.125 87.875 C124.57897671 81.93020032 119.81095928 76.25219045 114.86035156 70.6418457 C110.50825033 65.67516951 106.43087853 60.53145421 102.51367188 55.21484375 C101.40970473 53.75645397 100.211784 52.37011815 99 51 C98.01 51 97.02 51 96 51 C94.06922041 52.94252554 94.06922041 52.94252554 92.125 55.5625 C88.40054862 60.27247991 84.57631774 64.85371341 80.625 69.375 C76.34609292 74.28833106 72.08728146 79.21686533 67.875 84.1875 C67.42592285 84.71585449 66.9768457 85.24420898 66.51416016 85.78857422 C64.25203839 88.46404337 62.06651288 91.17036308 60 94 C56.48379592 92.82793197 56.25109717 92.22138055 54.46875 89.125 C53.99405273 88.31401855 53.51935547 87.50303711 53.03027344 86.66748047 C52.5252832 85.78721191 52.02029297 84.90694336 51.5 84 C50.4138724 82.14702038 49.32529076 80.29547721 48.234375 78.4453125 C47.68845703 77.51879883 47.14253906 76.59228516 46.58007812 75.63769531 C44.39417542 71.98866985 42.08863377 68.42737188 39.75 64.875 C34.37459444 56.6770868 29.25630233 48.32858625 24.140625 39.96679688 C19.03869672 31.64336531 13.83199688 23.39302054 8.51635742 15.2043457 C7.97986572 14.3712085 7.44337402 13.53807129 6.890625 12.6796875 C6.42688477 11.96538574 5.96314453 11.25108398 5.48535156 10.51513672 C3.47506068 7.11112345 1.76796922 3.53593844 0 0 Z " transform="translate(155,68)" style="fill: #FF1E2D;"/><path d="M0 0 C10.27125 -0.495 20.5425 -0.99 31.125 -1.5 C34.33879395 -1.71849609 37.55258789 -1.93699219 40.86376953 -2.16210938 C60.48428869 -2.93977507 60.48428869 -2.93977507 66.69058228 2.24981689 C71.24755035 7.89009092 74.08042607 14.14061846 76.69859314 20.85786438 C78.81170609 25.95979498 81.63172747 30.6296523 84.4375 35.375 C85.51216469 37.28230089 86.58650479 39.18978481 87.66015625 41.09765625 C91.19361345 47.35803204 94.77956809 53.58755921 98.375 59.8125 C99.29829102 61.41230713 99.29829102 61.41230713 100.24023438 63.04443359 C103.2198596 68.20308381 106.20624143 73.35767124 109.20654297 78.50431824 C110.61375192 80.91941512 112.01777751 83.33635461 113.42144775 85.75350952 C114.42085782 87.47139378 115.42498988 89.18652813 116.42919922 90.90161133 C117.02877441 91.93439209 117.62834961 92.96717285 118.24609375 94.03125 C118.77904053 94.94455078 119.3119873 95.85785156 119.86108398 96.79882812 C121 99 121 99 121 101 C81.07 101 41.14 101 0 101 C0 67.67 0 34.34 0 0 Z " transform="translate(53,68)" style="fill: #FF1E2D;"/><path d="M0 0 C0.33 0 0.66 0 1 0 C1 65.01 1 130.02 1 197 C0.34 197 -0.32 197 -1 197 C-1 196.34 -1 195.68 -1 195 C-1.51304687 194.77828125 -2.02609375 194.5565625 -2.5546875 194.328125 C-5.99682271 192.45859469 -9.01037313 190.11656906 -12.125 187.75 C-12.82512207 187.22132324 -13.52524414 186.69264648 -14.24658203 186.14794922 C-21.79138527 180.43299868 -29.25558993 174.61436185 -36.71337891 168.78662109 C-40.49345635 165.83310767 -44.2773292 162.88448192 -48.0625 159.9375 C-48.79944092 159.36338379 -49.53638184 158.78926758 -50.2956543 158.19775391 C-54.07142717 155.26071984 -57.85810848 152.33924786 -61.6640625 149.44140625 C-62.42323975 148.86334229 -63.18241699 148.28527832 -63.96459961 147.68969727 C-65.39354993 146.60350669 -66.82393506 145.51919971 -68.25610352 144.43725586 C-72.64329687 141.10468151 -76.84643423 137.62022853 -81 134 C-79.56915942 130.11006882 -77.74097569 126.72743767 -75.578125 123.1953125 C-75.07372139 122.36788544 -75.07372139 122.36788544 -74.55912781 121.52374268 C-73.45963844 119.72196291 -72.35485383 117.9234943 -71.25 116.125 C-70.47692831 114.86041285 -69.70422775 113.59559875 -68.93188477 112.33056641 C-67.3660401 109.76680824 -65.798291 107.20423052 -64.22900391 104.64257812 C-61.68032744 100.48046182 -59.14723185 96.30894564 -56.61474609 92.13696289 C-49.13860738 79.82581918 -41.5888433 67.56019062 -34.03222656 55.29833984 C-31.35038109 50.94565695 -28.67092376 46.59150728 -25.99194336 42.23706055 C-24.67298918 40.09365897 -23.35349789 37.95058781 -22.03344727 35.80786133 C-18.8852011 30.69648576 -15.74215208 25.58209438 -12.61514282 20.45770264 C-11.12553455 18.01723908 -9.63331143 15.57837963 -8.14086914 13.13964844 C-7.42503368 11.96825185 -6.71050316 10.79605677 -5.99731445 9.62304688 C-5.01315777 8.00454232 -4.02428232 6.38890987 -3.03515625 4.7734375 C-2.4719165 3.84966309 -1.90867676 2.92588867 -1.32836914 1.97412109 C-0.89000732 1.32266113 -0.45164551 0.67120117 0 0 Z " transform="translate(347,135)" style="fill: #FF202F;"/><path d="M0 0 C132 0 264 0 400 0 C400 5.94 400 11.88 400 18 C268 18 136 18 0 18 C0 12.06 0 6.12 0 0 Z " transform="translate(0,382)" style="fill: #E9E8E9;"/><path d="M0 0 C1.10611998 1.10611998 2.2118519 2.2126291 3.31640625 3.3203125 C4.56917776 4.57017734 5.82795574 5.81402751 7.08984375 7.0546875 C20.40277188 20.20831563 20.40277188 20.20831563 22 25 C22.66 25 23.32 25 24 25 C23.30844647 28.71571043 21.69601308 31.60663073 19.859375 34.890625 C19.38122597 35.75086273 19.38122597 35.75086273 18.89341736 36.628479 C17.8496839 38.50462101 16.79978638 40.37723936 15.75 42.25 C14.29095367 44.86867213 12.83506908 47.48909864 11.37890625 50.109375 C11.01130692 50.76977783 10.64370758 51.43018066 10.26496887 52.1105957 C6.13531361 59.53691322 2.10083891 67.01390848 -1.92480469 74.49707031 C-2.42012695 75.41584961 -2.91544922 76.33462891 -3.42578125 77.28125 C-4.06640503 78.47331055 -4.06640503 78.47331055 -4.7199707 79.68945312 C-5.35358521 80.83317383 -5.35358521 80.83317383 -6 82 C-6.53790161 83.37381836 -6.53790161 83.37381836 -7.08666992 84.77539062 C-9 87 -9 87 -10.92500305 87.39416504 C-13.36452435 87.49375381 -15.74915323 87.43507737 -18.1875 87.3125 C-19.4549707 87.27866211 -19.4549707 87.27866211 -20.74804688 87.24414062 C-22.83278798 87.18524963 -24.91661804 87.09556798 -27 87 C-27.30680642 79.42457156 -27.51543265 71.850768 -27.65917969 64.27050781 C-27.71915639 61.69795892 -27.80077219 59.12581265 -27.90527344 56.5546875 C-28.84320431 32.86733527 -28.84320431 32.86733527 -22.8916626 25.34597778 C-20.87640341 23.18952473 -18.77112433 21.22657693 -16.50682068 19.33493042 C-14.05057616 17.15888149 -12.14622305 14.64317478 -10.125 12.0625 C-6.81263781 7.9838901 -3.44108739 3.97048545 0 0 Z " transform="translate(251,165)" style="fill: #FF1E2D;"/><path d="M0 0 C20.60172147 0 20.60172147 0 27.87084961 6.65576172 C28.29374268 7.11740723 28.71663574 7.57905273 29.15234375 8.0546875 C31.64032426 10.66894871 34.26480223 12.91382989 37.125 15.125 C43.40588657 20.10709258 49.59220434 25.20312569 55.7890625 30.2890625 C56.70429688 31.03929687 57.61953125 31.78953125 58.5625 32.5625 C59.90441406 33.66271484 59.90441406 33.66271484 61.2734375 34.78515625 C64.88470902 37.71866764 68.53746871 40.59857579 72.19921875 43.46875 C72.79347656 43.9740625 73.38773437 44.479375 74 45 C74 45.33 74 45.66 74 46 C49.58 46 25.16 46 0 46 C0 30.82 0 15.64 0 0 Z " transform="translate(223,286)" style="fill: #FF2332;"/><path d="M0 0 C21.12 0 42.24 0 64 0 C63.67 0.66 63.34 1.32 63 2 C32.805 1.505 32.805 1.505 2 1 C2 33.34 2 65.68 2 99 C41.27 99 80.54 99 121 99 C121 99.66 121 100.32 121 101 C81.07 101 41.14 101 0 101 C0 67.67 0 34.34 0 0 Z " transform="translate(53,68)" style="fill: #FF3E4B;"/></svg>